<?xml version="1.0" encoding="UTF-8"?>
<svg id="Layer_1" data-name="Layer 1" xmlns="http://www.w3.org/2000/svg" viewBox="0 0 349.05 64.21">
  <polygon points="54.81 63.66 33.92 52.99 13.3 64.16 16.99 40.99 0 24.81 23.17 21.16 33.29 0 43.92 20.91 67.17 24.01 50.57 40.59 54.81 63.66"/>
  <polygon points="125.28 63.68 104.4 53.01 83.77 64.17 87.46 41 70.47 24.83 93.64 21.18 103.76 .01 114.39 20.93 137.64 24.03 121.04 40.6 125.28 63.68"/>
  <polygon points="195.75 63.69 174.87 53.02 154.24 64.19 157.93 41.02 140.94 24.84 164.11 21.19 174.23 .03 184.86 20.94 208.11 24.04 191.51 40.62 195.75 63.69"/>
  <polygon points="266.22 63.71 245.34 53.04 224.71 64.2 228.4 41.03 211.41 24.86 234.58 21.21 244.71 .04 255.33 20.96 278.58 24.06 261.98 40.63 266.22 63.71"/>
  <polygon points="336.69 63.72 315.81 53.05 295.18 64.21 298.87 41.05 281.88 24.87 305.05 21.22 315.18 .06 325.8 20.97 349.05 24.07 332.45 40.65 336.69 63.72"/>
</svg>