<?xml version="1.0" encoding="UTF-8"?>
<svg id="Layer_4" data-name="Layer 4" xmlns="http://www.w3.org/2000/svg" viewBox="0 0 475.32 400">
  <defs>
    <style>
      .cls-1 {
        stroke-width: 9.98px;
      }

      .cls-1, .cls-2 {
        fill: none;
        stroke: #e61d2b;
        stroke-linecap: round;
        stroke-linejoin: round;
      }

      .cls-2 {
        stroke-width: 10.69px;
      }
    </style>
  </defs>
  <path class="cls-2" d="M255.72,112.05c-13.35,8.97-28.89,14.52-44.84,16.17,9.38-10.27,18.86-24.61,14.11-39.18-3.7-11.36-16.06-20.69-28.15-17.2-7.51,2.17-12.76,8.65-16.81,15.02,3.23-9.64,6.55-20.93,1.56-30.59-4.32-8.37-13.74-12.77-22.84-12.75-18.1,.03-31.71,15.76-38.35,31.32-16.11,37.71,11.25,71.64,28.94,102.76,18.89,33.24,31.04,77.45,13.45,113.82-8.08,16.7-24.09,34.16-43.53,35.79-18.78,1.57-31.49-13.4-31.11-31.49,.39-18.75,12.15-35.83,26.53-46.86,17.44-13.37,39.35-17.83,60.54-21.14,5.3-.83,10.61-1.7,15.77-3.18"/>
  <path class="cls-2" d="M255.72,112.05c-13.35,8.97-28.89,14.52-44.84,16.17,9.38-10.27,18.86-24.61,14.11-39.18-3.7-11.36-16.06-20.69-28.15-17.2-7.51,2.17-12.76,8.65-16.81,15.02,3.23-9.64,6.55-20.93,1.56-30.59-4.32-8.37-13.74-12.77-22.84-12.75-18.1,.03-31.71,15.76-38.35,31.32-16.11,37.71,11.25,71.64,28.94,102.76,18.89,33.24,31.04,77.45,13.45,113.82-8.08,16.7-24.09,34.16-43.53,35.79-18.78,1.57-31.49-13.4-31.11-31.49,.39-18.75,12.15-35.83,26.53-46.86,17.44-13.37,39.35-17.83,60.54-21.14,5.3-.83,10.61-1.7,15.77-3.18"/>
  <path class="cls-2" d="M255.72,112.05c-13.35,8.97-28.89,14.52-44.84,16.17,9.38-10.27,18.86-24.61,14.11-39.18-3.7-11.36-16.06-20.69-28.15-17.2-7.51,2.17-12.76,8.65-16.81,15.02,3.23-9.64,6.55-20.93,1.56-30.59-4.32-8.37-13.74-12.77-22.84-12.75-18.1,.03-31.71,15.76-38.35,31.32-16.11,37.71,11.25,71.64,28.94,102.76,18.89,33.24,31.04,77.45,13.45,113.82-8.08,16.7-24.09,34.16-43.53,35.79-18.78,1.57-31.49-13.4-31.11-31.49,.39-18.75,12.15-35.83,26.53-46.86,17.44-13.37,39.35-17.83,60.54-21.14,5.3-.83,10.61-1.7,15.77-3.18"/>
  <path class="cls-2" d="M255.72,112.05c-13.35,8.97-28.89,14.52-44.84,16.17,9.38-10.27,18.86-24.61,14.11-39.18-3.7-11.36-16.06-20.69-28.15-17.2-7.51,2.17-12.76,8.65-16.81,15.02,3.23-9.64,6.55-20.93,1.56-30.59-4.32-8.37-13.74-12.77-22.84-12.75-18.1,.03-31.71,15.76-38.35,31.32-16.11,37.71,11.25,71.64,28.94,102.76,18.89,33.24,31.04,77.45,13.45,113.82-8.08,16.7-24.09,34.16-43.53,35.79-18.78,1.57-31.49-13.4-31.11-31.49,.39-18.75,12.15-35.83,26.53-46.86,17.44-13.37,39.35-17.83,60.54-21.14,5.3-.83,10.61-1.7,15.77-3.18"/>
  <line class="cls-2" x1="190.97" y1="224.53" x2="220.28" y2="194.96"/>
  <line class="cls-2" x1="220.28" y1="296.89" x2="220.28" y2="194.96"/>
  <line class="cls-2" x1="205.63" y1="234.81" x2="255.72" y2="234.25"/>
  <line class="cls-2" x1="255.72" y1="189.81" x2="255.72" y2="257.83"/>
  <line class="cls-2" x1="282.93" y1="257.83" x2="255.72" y2="189.81"/>
  <line class="cls-2" x1="282.93" y1="185.42" x2="282.93" y2="296.89"/>
  <line class="cls-2" x1="282.93" y1="234.25" x2="349.67" y2="234.25"/>
  <path class="cls-2" d="M348.45,239.52c-.53,2.02-4.22,15.15-15.69,19.23-1.25,.44-3.98,1.28-7.39,1.13-9.96-.44-24.85-9.23-24.84-25.06,0-13.74,11.21-25.06,24.84-25.06"/>
  <line class="cls-2" x1="356.52" y1="210.14" x2="356.52" y2="258.22"/>
  <path class="cls-1" d="M356.52,222.54c.71-4.35,3.88-8.34,8.27-10.43,4.4-2.09,9.93-2.24,14.46-.38,5.48,2.24,9.26,7.43,9.14,12.75s-4.24,10.41-9.95,12.15c-4.42,1.35-9.33,.76-13.87,1.76,9.88,8.27,17.4,12.48,27.28,20.75"/>
  <line class="cls-2" x1="391.85" y1="259.14" x2="410.73" y2="259.89"/>
  <line class="cls-2" x1="410.12" y1="213.03" x2="410.73" y2="259.89"/>
  <line class="cls-2" x1="433.3" y1="210.35" x2="410.43" y2="210.14"/>
  <line class="cls-2" x1="410.43" y1="234.18" x2="428.44" y2="234.18"/>
  <line class="cls-2" x1="410.73" y1="259.89" x2="441.26" y2="259.89"/>
  <line class="cls-2" x1="410.73" y1="259.89" x2="410.43" y2="275.86"/>
  <ellipse class="cls-2" cx="459.92" cy="234.82" rx="2.6" ry="2.62"/>
</svg>