<?xml version="1.0" encoding="UTF-8"?>
<svg id="Layer_6" data-name="Layer 6" xmlns="http://www.w3.org/2000/svg" viewBox="0 0 836.66 836.66">
  <defs>
    <style>
      .cls-1 {
        fill: none;
        stroke: #fffeff;
        stroke-linejoin: round;
        stroke-width: 9px;
      }
    </style>
  </defs>
  <path class="cls-1" d="M405.54,307.56c-18.41,4.42-36.4,14.78-44.34,31.35-7.95,16.58-2.29,39.56,15,47.08,8.73,3.8,18.81,3.31,28.26,1.8,15.3-2.45,31.89-8.94,37.59-22.81,2.01-4.91,2.43-10.27,2.79-15.54,5.01-72.53,4.42-145.43-7.08-219.08,20.51,.15,41.02,.3,61.53,.45-.09,21.95,9.54,43.79,26.02,58.98,16.48,15.19,39.57,23.52,62.36,22.5-.46,18.27-1.89,36.51-4.26,54.64-27.13-.3-53.77-13.51-73.06-35.21,2.4,43,1.1,86.19-3.9,128.98-1.81,15.47-4.15,31.09-10.4,45.45-18.85,43.29-74.12,66.94-121.35,55.21-47.23-11.73-82.82-54.95-88.26-101.59-1.36-11.65-1.04-23.56,1.99-34.92,9.27-34.76,42.76-59.42,78.23-70.52,8.84-2.77,18.27-4.88,27.38-3.09,12.54,2.46,22.97,12.89,25.04,25.04,2.08,12.15-2.73,28.68-13.55,31.28Z"/>
</svg>