<?xml version="1.0" encoding="UTF-8"?>
<svg id="Layer_5" data-name="Layer 5" xmlns="http://www.w3.org/2000/svg" viewBox="0 0 836.66 836.66">
  <defs>
    <style>
      .cls-1 {
        fill: none;
        stroke: #fff;
        stroke-linejoin: round;
        stroke-width: 9px;
      }
    </style>
  </defs>
  <path class="cls-1" d="M264.66,173.56c32.25,33.78,66.75,68.94,110.86,80.54,14.41,3.79,34.11,1.72,37.99-13.4,1.56-6.07-.14-12.45-1.08-18.66-4.69-31.28,12.83-64.76,40.42-77.24,27.6-12.49,62.68-2.81,80.94,22.33,4.32,5.95,8.54,13.18,15.51,14.59,5.19,1.05,10.35-1.54,15.06-4.06,10.13-5.4,20.26-10.81,30.38-16.21-9.38,13.49-18.76,26.99-28.14,40.48,10.78-2.68,22.29-2.01,32.72,1.91-10.37,3.67-20.17,9.12-30.49,21.09,11.31,77.93-23.51,161.23-85.69,204.99-48.41,34.07-109.46,44.03-167.34,37.6-27.51-3.06-56.76-10.89-74.48-33.29,33.13,2.19,66.82-6.24,95.49-23.87-34.88-2.22-67.8-25.89-82.5-59.32,18.2,3.51,37.32,1.59,54.56-5.48-32.42-8.23-58.44-39.31-62.16-74.25,11.15,7.49,25.39,9.66,38.09,5.8-29.54-24.97-38.44-73.3-20.17-103.54Z"/>
</svg>